+ filenameToUse=/home/horvathandras/vatic/vatic/public/videouploads/DJI_0065_5m_to_30m_regi_disznoturas_homokmegy_20180603_napos_kalaszos_T4.avi
+ filenameNoDot=DJI_0065_5m_to_30m_regi_disznoturas_homokmegy_20180603_napos_kalaszos_T4
+ FullUploadPath=/home/horvathandras/vatic/vatic/public/videouploads/DJI_0065_5m_to_30m_regi_disznoturas_homokmegy_20180603_napos_kalaszos_T4.avi
+ VideoDataDir=/home/horvathandras/vatic/vatic/videos
+ AvailableObjectTypes='PozitívROI NegatívROI Túrás ~Friss ~1-2Hetes ~Régebbi ~Egyéb1 ~Egyéb2 ~Egyéb3 Rágás ~Friss ~1-2Hetes ~Régebbi ~Egyéb1 ~Egyéb2 ~Egyéb3 Törés ~Friss ~1-2Hetes ~Régebbi ~Egyéb1 ~Egyéb2 ~Egyéb3 Taposás ~Friss ~1-2Hetes ~Régebbi ~Egyéb1 ~Egyéb2 ~Egyéb3 EgészségesNövény Egyéb1 Egyéb2 Egyéb3 Egyéb4 Egyéb5 Bizonytalan Művelőút Gktaposás Vetőhiba Széldöntés Jégkár Belvíz Aszály Erózió EgyszikűGyom KétszikűGyom EgyébNövvédelmiPR'
++ dirname /home/horvathandras/vatic/vatic/vatic_publisher.sh
+ cd /home/horvathandras/vatic/vatic
+ touch /home/horvathandras/vatic/vatic/public/videouploads/DJI_0065_5m_to_30m_regi_disznoturas_homokmegy_20180603_napos_kalaszos_T4.avi
+ chmod 744 /home/horvathandras/vatic/vatic/public/videouploads/DJI_0065_5m_to_30m_regi_disznoturas_homokmegy_20180603_napos_kalaszos_T4.avi
+ mkdir /home/horvathandras/vatic/vatic/videos/DJI_0065_5m_to_30m_regi_disznoturas_homokmegy_20180603_napos_kalaszos_T4
+ turkic extract /home/horvathandras/vatic/vatic/public/videouploads/DJI_0065_5m_to_30m_regi_disznoturas_homokmegy_20180603_napos_kalaszos_T4.avi /home/horvathandras/vatic/vatic/videos/DJI_0065_5m_to_30m_regi_disznoturas_homokmegy_20180603_napos_kalaszos_T4 --no-resize
ffmpeg version 2.8.14-0ubuntu0.16.04.1 Copyright (c) 2000-2018 the FFmpeg developers
  built with gcc 5.4.0 (Ubuntu 5.4.0-6ubuntu1~16.04.9) 20160609
  configuration: --prefix=/usr --extra-version=0ubuntu0.16.04.1 --build-suffix=-ffmpeg --toolchain=hardened --libdir=/usr/lib/x86_64-linux-gnu --incdir=/usr/include/x86_64-linux-gnu --cc=cc --cxx=g++ --enable-gpl --enable-shared --disable-stripping --disable-decoder=libopenjpeg --disable-decoder=libschroedinger --enable-avresample --enable-avisynth --enable-gnutls --enable-ladspa --enable-libass --enable-libbluray --enable-libbs2b --enable-libcaca --enable-libcdio --enable-libflite --enable-libfontconfig --enable-libfreetype --enable-libfribidi --enable-libgme --enable-libgsm --enable-libmodplug --enable-libmp3lame --enable-libopenjpeg --enable-libopus --enable-libpulse --enable-librtmp --enable-libschroedinger --enable-libshine --enable-libsnappy --enable-libsoxr --enable-libspeex --enable-libssh --enable-libtheora --enable-libtwolame --enable-libvorbis --enable-libvpx --enable-libwavpack --enable-libwebp --enable-libx265 --enable-libxvid --enable-libzvbi --enable-openal --enable-opengl --enable-x11grab --enable-libdc1394 --enable-libiec61883 --enable-libzmq --enable-frei0r --enable-libx264 --enable-libopencv
  libavutil      54. 31.100 / 54. 31.100
  libavcodec     56. 60.100 / 56. 60.100
  libavformat    56. 40.101 / 56. 40.101
  libavdevice    56.  4.100 / 56.  4.100
  libavfilter     5. 40.101 /  5. 40.101
  libavresample   2.  1.  0 /  2.  1.  0
  libswscale      3.  1.101 /  3.  1.101
  libswresample   1.  2.101 /  1.  2.101
  libpostproc    53.  3.100 / 53.  3.100
Input #0, mov,mp4,m4a,3gp,3g2,mj2, from '/home/horvathandras/vatic/vatic/public/videouploads/DJI_0065_5m_to_30m_regi_disznoturas_homokmegy_20180603_napos_kalaszos_T4.avi':
  Metadata:
    major_brand     : qt  
    minor_version   : 537986816
    compatible_brands: qt  
    creation_time   : 2018-06-03 08:57:40
    location        : +46.517647+19.172916+5.300
    location-{    : +46.517647+19.172916+5.300
    comment         : DE=None, Mode=P, DSW=0001
  Duration: 00:00:25.50, start: 0.000000, bitrate: 100960 kb/s
    Stream #0:0(eng): Video: h264 (High) (avc1 / 0x31637661), yuv420p(tv, bt709), 4096x2160 [SAR 1:1 DAR 256:135], 100788 kb/s, 50 fps, 50 tbr, 50k tbn, 100 tbc (default)
    Metadata:
      creation_time   : 2018-06-03 08:57:40
      handler_name    : DJI.AVC
      encoder         : AVC encoder
    Stream #0:1(eng): Data: none (priv / 0x76697270), 164 kb/s
    Metadata:
      creation_time   : 2018-06-03 08:57:40
      handler_name    : DJI.Meta
Please use -b:a or -b:v, -b is ambiguous
[swscaler @ 0x18543e0] deprecated pixel format used, make sure you did set range correctly
Output #0, image2, to '/tmp/pyvision-ffmpeg-296094984/%d.jpg':
  Metadata:
    major_brand     : qt  
    minor_version   : 537986816
    compatible_brands: qt  
    comment         : DE=None, Mode=P, DSW=0001
    location        : +46.517647+19.172916+5.300
    location-{    : +46.517647+19.172916+5.300
    encoder         : Lavf56.40.101
    Stream #0:0(eng): Video: mjpeg, yuvj420p(pc), 4096x2160 [SAR 1:1 DAR 256:135], q=2-31, 10000 kb/s, 50 fps, 50 tbn, 50 tbc (default)
    Metadata:
      creation_time   : 2018-06-03 08:57:40
      handler_name    : DJI.AVC
      encoder         : Lavc56.60.100 mjpeg
Stream mapping:
  Stream #0:0 -> #0:0 (h264 (native) -> mjpeg (native))
Press [q] to stop, [?] for help
frame=    1 fps=0.7 q=19.8 size=N/A time=00:00:00.02 bitrate=N/A    frame=    3 fps=1.5 q=24.1 size=N/A time=00:00:00.06 bitrate=N/A    frame=    5 fps=1.9 q=24.8 size=N/A time=00:00:00.10 bitrate=N/A    frame=    7 fps=2.2 q=24.8 size=N/A time=00:00:00.14 bitrate=N/A    frame=   10 fps=2.6 q=24.8 size=N/A time=00:00:00.20 bitrate=N/A    frame=   12 fps=2.8 q=24.8 size=N/A time=00:00:00.24 bitrate=N/A    frame=   15 fps=3.0 q=24.8 size=N/A time=00:00:00.30 bitrate=N/A    frame=   18 fps=3.1 q=24.8 size=N/A time=00:00:00.36 bitrate=N/A    frame=   21 fps=3.2 q=24.8 size=N/A time=00:00:00.42 bitrate=N/A    frame=   23 fps=3.3 q=24.8 size=N/A time=00:00:00.46 bitrate=N/A    frame=   26 fps=3.4 q=24.8 size=N/A time=00:00:00.52 bitrate=N/A    frame=   29 fps=3.5 q=24.8 size=N/A time=00:00:00.58 bitrate=N/A    frame=   32 fps=3.5 q=24.8 size=N/A time=00:00:00.64 bitrate=N/A    frame=   35 fps=3.6 q=24.8 size=N/A time=00:00:00.70 bitrate=N/A    frame=   38 fps=3.6 q=24.8 size=N/A time=00:00:00.76 bitrate=N/A    frame=   40 fps=3.6 q=24.8 size=N/A time=00:00:00.80 bitrate=N/A    frame=   43 fps=3.7 q=24.8 size=N/A time=00:00:00.86 bitrate=N/A    frame=   45 fps=3.7 q=24.8 size=N/A time=00:00:00.90 bitrate=N/A    frame=   48 fps=3.8 q=24.8 size=N/A time=00:00:00.96 bitrate=N/A    frame=   51 fps=3.8 q=24.8 size=N/A time=00:00:01.02 bitrate=N/A    frame=   53 fps=3.8 q=24.8 size=N/A time=00:00:01.06 bitrate=N/A    frame=   57 fps=3.9 q=24.8 size=N/A time=00:00:01.14 bitrate=N/A    frame=   59 fps=3.9 q=24.8 size=N/A time=00:00:01.18 bitrate=N/A    frame=   62 fps=3.9 q=24.8 size=N/A time=00:00:01.24 bitrate=N/A    frame=   65 fps=3.9 q=24.8 size=N/A time=00:00:01.30 bitrate=N/A    frame=   68 fps=3.9 q=24.8 size=N/A time=00:00:01.36 bitrate=N/A    frame=   71 fps=4.0 q=24.8 size=N/A time=00:00:01.42 bitrate=N/A    frame=   74 fps=4.0 q=24.8 size=N/A time=00:00:01.48 bitrate=N/A    frame=   77 fps=4.0 q=24.8 size=N/A time=00:00:01.54 bitrate=N/A    frame=   80 fps=4.0 q=24.8 size=N/A time=00:00:01.60 bitrate=N/A    frame=   83 fps=4.1 q=24.8 size=N/A time=00:00:01.66 bitrate=N/A    frame=   85 fps=4.0 q=24.8 size=N/A time=00:00:01.70 bitrate=N/A    frame=   88 fps=4.1 q=24.8 size=N/A time=00:00:01.76 bitrate=N/A    frame=   91 fps=4.1 q=24.8 size=N/A time=00:00:01.82 bitrate=N/A    frame=   94 fps=4.1 q=24.8 size=N/A time=00:00:01.88 bitrate=N/A    frame=   96 fps=4.1 q=24.8 size=N/A time=00:00:01.92 bitrate=N/A    frame=   99 fps=4.1 q=24.8 size=N/A time=00:00:01.98 bitrate=N/A    frame=  102 fps=4.1 q=24.8 size=N/A time=00:00:02.04 bitrate=N/A    frame=  105 fps=4.2 q=24.8 size=N/A time=00:00:02.10 bitrate=N/A    frame=  108 fps=4.2 q=24.8 size=N/A time=00:00:02.16 bitrate=N/A    frame=  111 fps=4.2 q=24.8 size=N/A time=00:00:02.22 bitrate=N/A    frame=  114 fps=4.2 q=24.8 size=N/A time=00:00:02.28 bitrate=N/A    frame=  116 fps=4.2 q=24.8 size=N/A time=00:00:02.32 bitrate=N/A    frame=  119 fps=4.2 q=24.8 size=N/A time=00:00:02.38 bitrate=N/A    frame=  122 fps=4.2 q=24.8 size=N/A time=00:00:02.44 bitrate=N/A    frame=  125 fps=4.2 q=24.8 size=N/A time=00:00:02.50 bitrate=N/A    frame=  128 fps=4.2 q=24.8 size=N/A time=00:00:02.56 bitrate=N/A    frame=  130 fps=4.2 q=24.8 size=N/A time=00:00:02.60 bitrate=N/A    frame=  133 fps=4.2 q=24.8 size=N/A time=00:00:02.66 bitrate=N/A    frame=  136 fps=4.2 q=24.8 size=N/A time=00:00:02.72 bitrate=N/A    frame=  140 fps=4.3 q=24.8 size=N/A time=00:00:02.80 bitrate=N/A    frame=  143 fps=4.3 q=24.8 size=N/A time=00:00:02.86 bitrate=N/A    frame=  145 fps=4.3 q=24.8 size=N/A time=00:00:02.90 bitrate=N/A    frame=  149 fps=4.3 q=24.8 size=N/A time=00:00:02.98 bitrate=N/A    frame=  151 fps=4.3 q=24.8 size=N/A time=00:00:03.02 bitrate=N/A    frame=  153 fps=4.3 q=24.8 size=N/A time=00:00:03.06 bitrate=N/A    frame=  155 fps=4.3 q=24.8 size=N/A time=00:00:03.10 bitrate=N/A    frame=  158 fps=4.3 q=24.8 size=N/A time=00:00:03.16 bitrate=N/A    frame=  161 fps=4.3 q=24.8 size=N/A time=00:00:03.22 bitrate=N/A    frame=  163 fps=4.2 q=24.8 size=N/A time=00:00:03.26 bitrate=N/A    frame=  166 fps=4.2 q=24.8 size=N/A time=00:00:03.32 bitrate=N/A    frame=  169 fps=4.3 q=24.8 size=N/A time=00:00:03.38 bitrate=N/A    frame=  171 fps=4.3 q=24.8 size=N/A time=00:00:03.42 bitrate=N/A    frame=  174 fps=4.3 q=24.8 size=N/A time=00:00:03.48 bitrate=N/A    frame=  177 fps=4.3 q=24.8 size=N/A time=00:00:03.54 bitrate=N/A    frame=  179 fps=4.2 q=24.8 size=N/A time=00:00:03.58 bitrate=N/A    frame=  181 fps=4.2 q=24.8 size=N/A time=00:00:03.62 bitrate=N/A    frame=  183 fps=4.2 q=24.8 size=N/A time=00:00:03.66 bitrate=N/A    frame=  185 fps=4.2 q=24.8 size=N/A time=00:00:03.70 bitrate=N/A    frame=  187 fps=4.2 q=24.8 size=N/A time=00:00:03.74 bitrate=N/A    frame=  190 fps=4.2 q=24.8 size=N/A time=00:00:03.80 bitrate=N/A    frame=  192 fps=4.2 q=24.8 size=N/A time=00:00:03.84 bitrate=N/A    frame=  195 fps=4.2 q=24.8 size=N/A time=00:00:03.90 bitrate=N/A    frame=  197 fps=4.2 q=24.8 size=N/A time=00:00:03.94 bitrate=N/A    frame=  199 fps=4.2 q=24.8 size=N/A time=00:00:03.98 bitrate=N/A    frame=  201 fps=4.2 q=24.8 size=N/A time=00:00:04.02 bitrate=N/A    frame=  204 fps=4.2 q=24.8 size=N/A time=00:00:04.08 bitrate=N/A    frame=  207 fps=4.2 q=24.8 size=N/A time=00:00:04.14 bitrate=N/A    frame=  210 fps=4.2 q=24.8 size=N/A time=00:00:04.20 bitrate=N/A    frame=  213 fps=4.2 q=24.8 size=N/A time=00:00:04.26 bitrate=N/A    frame=  216 fps=4.2 q=24.8 size=N/A time=00:00:04.32 bitrate=N/A    frame=  218 fps=4.2 q=24.8 size=N/A time=00:00:04.36 bitrate=N/A    frame=  221 fps=4.2 q=24.8 size=N/A time=00:00:04.42 bitrate=N/A    frame=  224 fps=4.2 q=24.8 size=N/A time=00:00:04.48 bitrate=N/A    frame=  227 fps=4.2 q=24.8 size=N/A time=00:00:04.54 bitrate=N/A    frame=  230 fps=4.2 q=24.8 size=N/A time=00:00:04.60 bitrate=N/A    frame=  233 fps=4.2 q=24.8 size=N/A time=00:00:04.66 bitrate=N/A    frame=  236 fps=4.2 q=24.8 size=N/A time=00:00:04.72 bitrate=N/A    frame=  238 fps=4.2 q=24.8 size=N/A time=00:00:04.76 bitrate=N/A    frame=  241 fps=4.2 q=24.8 size=N/A time=00:00:04.82 bitrate=N/A    frame=  244 fps=4.2 q=24.8 size=N/A time=00:00:04.88 bitrate=N/A    frame=  246 fps=4.2 q=24.8 size=N/A time=00:00:04.92 bitrate=N/A    frame=  248 fps=4.2 q=24.8 size=N/A time=00:00:04.96 bitrate=N/A    frame=  250 fps=4.2 q=24.8 size=N/A time=00:00:05.00 bitrate=N/A    frame=  253 fps=4.2 q=24.8 size=N/A time=00:00:05.06 bitrate=N/A    frame=  255 fps=4.2 q=24.8 size=N/A time=00:00:05.10 bitrate=N/A    frame=  258 fps=4.2 q=24.8 size=N/A time=00:00:05.16 bitrate=N/A    frame=  260 fps=4.2 q=24.8 size=N/A time=00:00:05.20 bitrate=N/A    frame=  262 fps=4.2 q=24.8 size=N/A time=00:00:05.24 bitrate=N/A    frame=  265 fps=4.2 q=24.8 size=N/A time=00:00:05.30 bitrate=N/A    frame=  267 fps=4.2 q=24.8 size=N/A time=00:00:05.34 bitrate=N/A    frame=  269 fps=4.2 q=24.8 size=N/A time=00:00:05.38 bitrate=N/A    frame=  271 fps=4.2 q=24.8 size=N/A time=00:00:05.42 bitrate=N/A    frame=  273 fps=4.2 q=24.8 size=N/A time=00:00:05.46 bitrate=N/A    frame=  275 fps=4.2 q=24.8 size=N/A time=00:00:05.50 bitrate=N/A    frame=  279 fps=4.2 q=24.8 size=N/A time=00:00:05.58 bitrate=N/A    frame=  282 fps=4.2 q=24.8 size=N/A time=00:00:05.64 bitrate=N/A    frame=  285 fps=4.2 q=24.8 size=N/A time=00:00:05.70 bitrate=N/A    frame=  288 fps=4.2 q=24.8 size=N/A time=00:00:05.76 bitrate=N/A    frame=  290 fps=4.2 q=24.8 size=N/A time=00:00:05.80 bitrate=N/A    frame=  294 fps=4.2 q=24.8 size=N/A time=00:00:05.88 bitrate=N/A    frame=  297 fps=4.2 q=24.8 size=N/A time=00:00:05.94 bitrate=N/A    frame=  299 fps=4.2 q=24.8 size=N/A time=00:00:05.98 bitrate=N/A    frame=  302 fps=4.2 q=24.8 size=N/A time=00:00:06.04 bitrate=N/A    frame=  304 fps=4.2 q=24.8 size=N/A time=00:00:06.08 bitrate=N/A    frame=  306 fps=4.2 q=24.8 size=N/A time=00:00:06.12 bitrate=N/A    frame=  308 fps=4.2 q=24.8 size=N/A time=00:00:06.16 bitrate=N/A    frame=  311 fps=4.2 q=24.8 size=N/A time=00:00:06.22 bitrate=N/A    frame=  313 fps=4.2 q=24.8 size=N/A time=00:00:06.26 bitrate=N/A    frame=  315 fps=4.2 q=24.8 size=N/A time=00:00:06.30 bitrate=N/A    frame=  318 fps=4.2 q=24.8 size=N/A time=00:00:06.36 bitrate=N/A    frame=  320 fps=4.2 q=24.8 size=N/A time=00:00:06.40 bitrate=N/A    frame=  322 fps=4.2 q=24.8 size=N/A time=00:00:06.44 bitrate=N/A    frame=  324 fps=4.1 q=24.8 size=N/A time=00:00:06.48 bitrate=N/A    frame=  326 fps=4.1 q=24.8 size=N/A time=00:00:06.52 bitrate=N/A    frame=  328 fps=4.1 q=24.8 size=N/A time=00:00:06.56 bitrate=N/A    frame=  330 fps=4.1 q=24.8 size=N/A time=00:00:06.60 bitrate=N/A    frame=  333 fps=4.1 q=24.8 size=N/A time=00:00:06.66 bitrate=N/A    frame=  336 fps=4.2 q=24.8 size=N/A time=00:00:06.72 bitrate=N/A    frame=  338 fps=4.1 q=24.8 size=N/A time=00:00:06.76 bitrate=N/A    frame=  340 fps=4.1 q=24.8 size=N/A time=00:00:06.80 bitrate=N/A    frame=  343 fps=4.1 q=24.8 size=N/A time=00:00:06.86 bitrate=N/A    frame=  345 fps=4.1 q=24.8 size=N/A time=00:00:06.90 bitrate=N/A    frame=  347 fps=4.1 q=24.8 size=N/A time=00:00:06.94 bitrate=N/A    frame=  350 fps=4.1 q=24.8 size=N/A time=00:00:07.00 bitrate=N/A    frame=  353 fps=4.1 q=24.8 size=N/A time=00:00:07.06 bitrate=N/A    frame=  356 fps=4.1 q=24.8 size=N/A time=00:00:07.12 bitrate=N/A    frame=  359 fps=4.1 q=24.8 size=N/A time=00:00:07.18 bitrate=N/A    frame=  361 fps=4.1 q=24.8 size=N/A time=00:00:07.22 bitrate=N/A    frame=  363 fps=4.1 q=24.8 size=N/A time=00:00:07.26 bitrate=N/A    frame=  365 fps=4.1 q=24.8 size=N/A time=00:00:07.30 bitrate=N/A    frame=  367 fps=4.1 q=24.8 size=N/A time=00:00:07.34 bitrate=N/A    frame=  370 fps=4.1 q=24.8 size=N/A time=00:00:07.40 bitrate=N/A    frame=  372 fps=4.1 q=24.8 size=N/A time=00:00:07.44 bitrate=N/A    frame=  374 fps=4.1 q=24.8 size=N/A time=00:00:07.48 bitrate=N/A    frame=  377 fps=4.1 q=24.8 size=N/A time=00:00:07.54 bitrate=N/A    frame=  379 fps=4.1 q=24.8 size=N/A time=00:00:07.58 bitrate=N/A    frame=  382 fps=4.1 q=24.8 size=N/A time=00:00:07.64 bitrate=N/A    frame=  384 fps=4.1 q=24.8 size=N/A time=00:00:07.68 bitrate=N/A    frame=  387 fps=4.1 q=24.8 size=N/A time=00:00:07.74 bitrate=N/A    frame=  389 fps=4.1 q=24.8 size=N/A time=00:00:07.78 bitrate=N/A    frame=  391 fps=4.1 q=24.8 size=N/A time=00:00:07.82 bitrate=N/A    frame=  394 fps=4.1 q=24.8 size=N/A time=00:00:07.88 bitrate=N/A    frame=  397 fps=4.1 q=24.8 size=N/A time=00:00:07.94 bitrate=N/A    frame=  400 fps=4.1 q=24.8 size=N/A time=00:00:08.00 bitrate=N/A    frame=  403 fps=4.1 q=24.8 size=N/A time=00:00:08.06 bitrate=N/A    frame=  406 fps=4.1 q=24.8 size=N/A time=00:00:08.12 bitrate=N/A    frame=  408 fps=4.1 q=24.8 size=N/A time=00:00:08.16 bitrate=N/A    frame=  411 fps=4.2 q=24.8 size=N/A time=00:00:08.22 bitrate=N/A    frame=  414 fps=4.2 q=24.8 size=N/A time=00:00:08.28 bitrate=N/A    frame=  417 fps=4.2 q=24.8 size=N/A time=00:00:08.34 bitrate=N/A    frame=  419 fps=4.2 q=24.8 size=N/A time=00:00:08.38 bitrate=N/A    frame=  422 fps=4.2 q=24.8 size=N/A time=00:00:08.44 bitrate=N/A    frame=  425 fps=4.2 q=24.8 size=N/A time=00:00:08.50 bitrate=N/A    frame=  428 fps=4.2 q=24.8 size=N/A time=00:00:08.56 bitrate=N/A    frame=  431 fps=4.2 q=24.8 size=N/A time=00:00:08.62 bitrate=N/A    frame=  434 fps=4.2 q=24.8 size=N/A time=00:00:08.68 bitrate=N/A    frame=  437 fps=4.2 q=24.8 size=N/A time=00:00:08.74 bitrate=N/A    frame=  440 fps=4.2 q=24.8 size=N/A time=00:00:08.80 bitrate=N/A    frame=  443 fps=4.2 q=24.8 size=N/A time=00:00:08.86 bitrate=N/A    frame=  446 fps=4.2 q=24.8 size=N/A time=00:00:08.92 bitrate=N/A    frame=  448 fps=4.2 q=24.8 size=N/A time=00:00:08.96 bitrate=N/A    frame=  451 fps=4.2 q=24.8 size=N/A time=00:00:09.02 bitrate=N/A    frame=  453 fps=4.2 q=24.8 size=N/A time=00:00:09.06 bitrate=N/A    frame=  456 fps=4.2 q=24.8 size=N/A time=00:00:09.12 bitrate=N/A    frame=  458 fps=4.2 q=24.8 size=N/A time=00:00:09.16 bitrate=N/A    frame=  461 fps=4.2 q=24.8 size=N/A time=00:00:09.22 bitrate=N/A    frame=  464 fps=4.2 q=24.8 size=N/A time=00:00:09.28 bitrate=N/A    frame=  467 fps=4.2 q=24.8 size=N/A time=00:00:09.34 bitrate=N/A    frame=  470 fps=4.2 q=24.8 size=N/A time=00:00:09.40 bitrate=N/A    frame=  473 fps=4.2 q=24.8 size=N/A time=00:00:09.46 bitrate=N/A    frame=  475 fps=4.2 q=24.8 size=N/A time=00:00:09.50 bitrate=N/A    frame=  477 fps=4.2 q=24.8 size=N/A time=00:00:09.54 bitrate=N/A    frame=  480 fps=4.2 q=24.8 size=N/A time=00:00:09.60 bitrate=N/A    frame=  483 fps=4.2 q=24.8 size=N/A time=00:00:09.66 bitrate=N/A    frame=  486 fps=4.2 q=24.8 size=N/A time=00:00:09.72 bitrate=N/A    frame=  489 fps=4.2 q=24.8 size=N/A time=00:00:09.78 bitrate=N/A    frame=  492 fps=4.2 q=24.8 size=N/A time=00:00:09.84 bitrate=N/A    frame=  495 fps=4.2 q=24.8 size=N/A time=00:00:09.90 bitrate=N/A    frame=  498 fps=4.2 q=24.8 size=N/A time=00:00:09.96 bitrate=N/A    frame=  501 fps=4.2 q=24.8 size=N/A time=00:00:10.02 bitrate=N/A    frame=  504 fps=4.2 q=24.8 size=N/A time=00:00:10.08 bitrate=N/A    frame=  507 fps=4.2 q=24.8 size=N/A time=00:00:10.14 bitrate=N/A    frame=  509 fps=4.2 q=24.8 size=N/A time=00:00:10.18 bitrate=N/A    frame=  511 fps=4.2 q=24.8 size=N/A time=00:00:10.22 bitrate=N/A    frame=  513 fps=4.2 q=24.8 size=N/A time=00:00:10.26 bitrate=N/A    frame=  517 fps=4.2 q=24.8 size=N/A time=00:00:10.34 bitrate=N/A    frame=  521 fps=4.2 q=24.8 size=N/A time=00:00:10.42 bitrate=N/A    frame=  524 fps=4.2 q=24.8 size=N/A time=00:00:10.48 bitrate=N/A    frame=  528 fps=4.2 q=24.8 size=N/A time=00:00:10.56 bitrate=N/A    frame=  531 fps=4.3 q=24.8 size=N/A time=00:00:10.62 bitrate=N/A    frame=  534 fps=4.3 q=24.8 size=N/A time=00:00:10.68 bitrate=N/A    frame=  537 fps=4.3 q=24.8 size=N/A time=00:00:10.74 bitrate=N/A    frame=  540 fps=4.3 q=24.8 size=N/A time=00:00:10.80 bitrate=N/A    frame=  543 fps=4.3 q=24.8 size=N/A time=00:00:10.86 bitrate=N/A    frame=  546 fps=4.3 q=24.8 size=N/A time=00:00:10.92 bitrate=N/A    frame=  550 fps=4.3 q=24.8 size=N/A time=00:00:11.00 bitrate=N/A    frame=  553 fps=4.3 q=24.8 size=N/A time=00:00:11.06 bitrate=N/A    frame=  556 fps=4.3 q=24.8 size=N/A time=00:00:11.12 bitrate=N/A    frame=  559 fps=4.3 q=24.8 size=N/A time=00:00:11.18 bitrate=N/A    frame=  563 fps=4.3 q=24.8 size=N/A time=00:00:11.26 bitrate=N/A    frame=  566 fps=4.3 q=24.8 size=N/A time=00:00:11.32 bitrate=N/A    frame=  569 fps=4.3 q=24.8 size=N/A time=00:00:11.38 bitrate=N/A    frame=  572 fps=4.3 q=24.8 size=N/A time=00:00:11.44 bitrate=N/A    frame=  575 fps=4.3 q=24.8 size=N/A time=00:00:11.50 bitrate=N/A    frame=  578 fps=4.3 q=24.8 size=N/A time=00:00:11.56 bitrate=N/A    frame=  581 fps=4.3 q=24.8 size=N/A time=00:00:11.62 bitrate=N/A    frame=  583 fps=4.3 q=24.8 size=N/A time=00:00:11.66 bitrate=N/A    frame=  586 fps=4.3 q=24.8 size=N/A time=00:00:11.72 bitrate=N/A    frame=  589 fps=4.3 q=24.8 size=N/A time=00:00:11.78 bitrate=N/A    frame=  592 fps=4.3 q=24.8 size=N/A time=00:00:11.84 bitrate=N/A    frame=  594 fps=4.3 q=24.8 size=N/A time=00:00:11.88 bitrate=N/A    frame=  596 fps=4.3 q=24.8 size=N/A time=00:00:11.92 bitrate=N/A    frame=  598 fps=4.3 q=24.8 size=N/A time=00:00:11.96 bitrate=N/A    frame=  601 fps=4.3 q=24.8 size=N/A time=00:00:12.02 bitrate=N/A    frame=  604 fps=4.3 q=24.8 size=N/A time=00:00:12.08 bitrate=N/A    frame=  607 fps=4.3 q=24.8 size=N/A time=00:00:12.14 bitrate=N/A    frame=  610 fps=4.3 q=24.8 size=N/A time=00:00:12.20 bitrate=N/A    frame=  613 fps=4.3 q=24.8 size=N/A time=00:00:12.26 bitrate=N/A    frame=  616 fps=4.3 q=24.8 size=N/A time=00:00:12.32 bitrate=N/A    frame=  619 fps=4.3 q=24.8 size=N/A time=00:00:12.38 bitrate=N/A    frame=  622 fps=4.3 q=24.8 size=N/A time=00:00:12.44 bitrate=N/A    frame=  625 fps=4.3 q=24.8 size=N/A time=00:00:12.50 bitrate=N/A    frame=  627 fps=4.3 q=24.8 size=N/A time=00:00:12.54 bitrate=N/A    frame=  630 fps=4.3 q=24.8 size=N/A time=00:00:12.60 bitrate=N/A    frame=  633 fps=4.3 q=24.8 size=N/A time=00:00:12.66 bitrate=N/A    frame=  636 fps=4.3 q=24.8 size=N/A time=00:00:12.72 bitrate=N/A    frame=  639 fps=4.3 q=24.8 size=N/A time=00:00:12.78 bitrate=N/A    frame=  642 fps=4.3 q=24.8 size=N/A time=00:00:12.84 bitrate=N/A    frame=  645 fps=4.3 q=24.8 size=N/A time=00:00:12.90 bitrate=N/A    frame=  648 fps=4.3 q=24.8 size=N/A time=00:00:12.96 bitrate=N/A    frame=  651 fps=4.3 q=24.8 size=N/A time=00:00:13.02 bitrate=N/A    frame=  654 fps=4.3 q=24.8 size=N/A time=00:00:13.08 bitrate=N/A    frame=  656 fps=4.3 q=24.8 size=N/A time=00:00:13.12 bitrate=N/A    frame=  658 fps=4.3 q=24.8 size=N/A time=00:00:13.16 bitrate=N/A    frame=  661 fps=4.3 q=24.8 size=N/A time=00:00:13.22 bitrate=N/A    frame=  664 fps=4.3 q=24.8 size=N/A time=00:00:13.28 bitrate=N/A    frame=  666 fps=4.3 q=24.8 size=N/A time=00:00:13.32 bitrate=N/A    frame=  669 fps=4.3 q=24.8 size=N/A time=00:00:13.38 bitrate=N/A    frame=  671 fps=4.3 q=24.8 size=N/A time=00:00:13.42 bitrate=N/A    frame=  674 fps=4.3 q=24.8 size=N/A time=00:00:13.48 bitrate=N/A    frame=  677 fps=4.3 q=24.8 size=N/A time=00:00:13.54 bitrate=N/A    frame=  681 fps=4.3 q=24.8 size=N/A time=00:00:13.62 bitrate=N/A    frame=  683 fps=4.3 q=24.8 size=N/A time=00:00:13.66 bitrate=N/A    frame=  685 fps=4.3 q=24.8 size=N/A time=00:00:13.70 bitrate=N/A    frame=  687 fps=4.3 q=24.8 size=N/A time=00:00:13.74 bitrate=N/A    frame=  689 fps=4.3 q=24.8 size=N/A time=00:00:13.78 bitrate=N/A    frame=  692 fps=4.3 q=24.8 size=N/A time=00:00:13.84 bitrate=N/A    frame=  695 fps=4.3 q=24.8 size=N/A time=00:00:13.90 bitrate=N/A    frame=  698 fps=4.3 q=24.8 size=N/A time=00:00:13.96 bitrate=N/A    frame=  700 fps=4.3 q=24.8 size=N/A time=00:00:14.00 bitrate=N/A    frame=  703 fps=4.3 q=24.8 size=N/A time=00:00:14.06 bitrate=N/A    frame=  706 fps=4.3 q=24.8 size=N/A time=00:00:14.12 bitrate=N/A    frame=  709 fps=4.3 q=24.8 size=N/A time=00:00:14.18 bitrate=N/A    frame=  713 fps=4.3 q=24.8 size=N/A time=00:00:14.26 bitrate=N/A    frame=  715 fps=4.3 q=24.8 size=N/A time=00:00:14.30 bitrate=N/A    frame=  718 fps=4.3 q=24.8 size=N/A time=00:00:14.36 bitrate=N/A    frame=  721 fps=4.3 q=24.8 size=N/A time=00:00:14.42 bitrate=N/A    frame=  724 fps=4.3 q=24.8 size=N/A time=00:00:14.48 bitrate=N/A    frame=  727 fps=4.3 q=24.8 size=N/A time=00:00:14.54 bitrate=N/A    frame=  730 fps=4.4 q=24.8 size=N/A time=00:00:14.60 bitrate=N/A    frame=  734 fps=4.4 q=24.8 size=N/A time=00:00:14.68 bitrate=N/A    frame=  736 fps=4.4 q=24.8 size=N/A time=00:00:14.72 bitrate=N/A    frame=  739 fps=4.3 q=24.8 size=N/A time=00:00:14.78 bitrate=N/A    frame=  741 fps=4.3 q=24.8 size=N/A time=00:00:14.82 bitrate=N/A    frame=  744 fps=4.3 q=24.8 size=N/A time=00:00:14.88 bitrate=N/A    frame=  747 fps=4.3 q=24.8 size=N/A time=00:00:14.94 bitrate=N/A    frame=  750 fps=4.3 q=24.8 size=N/A time=00:00:15.00 bitrate=N/A    frame=  752 fps=4.3 q=24.8 size=N/A time=00:00:15.04 bitrate=N/A    frame=  755 fps=4.3 q=24.8 size=N/A time=00:00:15.10 bitrate=N/A    frame=  758 fps=4.3 q=24.8 size=N/A time=00:00:15.16 bitrate=N/A    frame=  760 fps=4.3 q=24.8 size=N/A time=00:00:15.20 bitrate=N/A    frame=  763 fps=4.3 q=24.8 size=N/A time=00:00:15.26 bitrate=N/A    frame=  766 fps=4.3 q=24.8 size=N/A time=00:00:15.32 bitrate=N/A    frame=  769 fps=4.3 q=24.8 size=N/A time=00:00:15.38 bitrate=N/A    frame=  772 fps=4.3 q=24.8 size=N/A time=00:00:15.44 bitrate=N/A    frame=  775 fps=4.3 q=24.8 size=N/A time=00:00:15.50 bitrate=N/A    frame=  777 fps=4.3 q=24.8 size=N/A time=00:00:15.54 bitrate=N/A    frame=  779 fps=4.3 q=24.8 size=N/A time=00:00:15.58 bitrate=N/A    frame=  782 fps=4.3 q=24.8 size=N/A time=00:00:15.64 bitrate=N/A    frame=  784 fps=4.3 q=24.8 size=N/A time=00:00:15.68 bitrate=N/A    frame=  786 fps=4.3 q=24.8 size=N/A time=00:00:15.72 bitrate=N/A    frame=  788 fps=4.3 q=24.8 size=N/A time=00:00:15.76 bitrate=N/A    frame=  791 fps=4.3 q=24.8 size=N/A time=00:00:15.82 bitrate=N/A    frame=  794 fps=4.3 q=24.8 size=N/A time=00:00:15.88 bitrate=N/A    frame=  796 fps=4.3 q=24.8 size=N/A time=00:00:15.92 bitrate=N/A    frame=  799 fps=4.3 q=24.8 size=N/A time=00:00:15.98 bitrate=N/A    frame=  801 fps=4.3 q=24.8 size=N/A time=00:00:16.02 bitrate=N/A    frame=  804 fps=4.3 q=24.8 size=N/A time=00:00:16.08 bitrate=N/A    frame=  807 fps=4.3 q=24.8 size=N/A time=00:00:16.14 bitrate=N/A    frame=  810 fps=4.3 q=24.8 size=N/A time=00:00:16.20 bitrate=N/A    frame=  812 fps=4.3 q=24.8 size=N/A time=00:00:16.24 bitrate=N/A    frame=  814 fps=4.3 q=24.8 size=N/A time=00:00:16.28 bitrate=N/A    frame=  817 fps=4.3 q=24.8 size=N/A time=00:00:16.34 bitrate=N/A    frame=  820 fps=4.3 q=24.8 size=N/A time=00:00:16.40 bitrate=N/A    frame=  823 fps=4.3 q=24.8 size=N/A time=00:00:16.46 bitrate=N/A    frame=  826 fps=4.3 q=24.8 size=N/A time=00:00:16.52 bitrate=N/A    frame=  828 fps=4.3 q=24.8 size=N/A time=00:00:16.56 bitrate=N/A    frame=  830 fps=4.3 q=24.8 size=N/A time=00:00:16.60 bitrate=N/A    frame=  832 fps=4.3 q=24.8 size=N/A time=00:00:16.64 bitrate=N/A    frame=  834 fps=4.3 q=24.8 size=N/A time=00:00:16.68 bitrate=N/A    frame=  836 fps=4.3 q=24.8 size=N/A time=00:00:16.72 bitrate=N/A    frame=  838 fps=4.3 q=24.8 size=N/A time=00:00:16.76 bitrate=N/A    frame=  840 fps=4.3 q=24.8 size=N/A time=00:00:16.80 bitrate=N/A    frame=  843 fps=4.3 q=24.8 size=N/A time=00:00:16.86 bitrate=N/A    frame=  845 fps=4.3 q=24.8 size=N/A time=00:00:16.90 bitrate=N/A    frame=  848 fps=4.3 q=24.8 size=N/A time=00:00:16.96 bitrate=N/A    frame=  850 fps=4.3 q=24.8 size=N/A time=00:00:17.00 bitrate=N/A    frame=  852 fps=4.3 q=24.8 size=N/A time=00:00:17.04 bitrate=N/A    frame=  855 fps=4.3 q=24.8 size=N/A time=00:00:17.10 bitrate=N/A    frame=  857 fps=4.3 q=24.8 size=N/A time=00:00:17.14 bitrate=N/A    frame=  859 fps=4.3 q=24.8 size=N/A time=00:00:17.18 bitrate=N/A    frame=  862 fps=4.3 q=24.8 size=N/A time=00:00:17.24 bitrate=N/A    frame=  865 fps=4.3 q=24.8 size=N/A time=00:00:17.30 bitrate=N/A    frame=  867 fps=4.3 q=24.8 size=N/A time=00:00:17.34 bitrate=N/A    frame=  869 fps=4.3 q=24.8 size=N/A time=00:00:17.38 bitrate=N/A    frame=  872 fps=4.3 q=24.8 size=N/A time=00:00:17.44 bitrate=N/A    frame=  874 fps=4.3 q=24.8 size=N/A time=00:00:17.48 bitrate=N/A    frame=  876 fps=4.3 q=24.8 size=N/A time=00:00:17.52 bitrate=N/A    frame=  879 fps=4.3 q=24.8 size=N/A time=00:00:17.58 bitrate=N/A    frame=  881 fps=4.3 q=24.8 size=N/A time=00:00:17.62 bitrate=N/A    frame=  883 fps=4.3 q=24.8 size=N/A time=00:00:17.66 bitrate=N/A    frame=  885 fps=4.3 q=24.8 size=N/A time=00:00:17.70 bitrate=N/A    frame=  887 fps=4.2 q=24.8 size=N/A time=00:00:17.74 bitrate=N/A    frame=  890 fps=4.3 q=24.8 size=N/A time=00:00:17.80 bitrate=N/A    frame=  893 fps=4.3 q=24.8 size=N/A time=00:00:17.86 bitrate=N/A    frame=  895 fps=4.3 q=24.8 size=N/A time=00:00:17.90 bitrate=N/A    frame=  897 fps=4.2 q=24.8 size=N/A time=00:00:17.94 bitrate=N/A    frame=  899 fps=4.2 q=24.8 size=N/A time=00:00:17.98 bitrate=N/A    frame=  901 fps=4.2 q=24.8 size=N/A time=00:00:18.02 bitrate=N/A    frame=  903 fps=4.2 q=24.8 size=N/A time=00:00:18.06 bitrate=N/A    frame=  906 fps=4.2 q=24.8 size=N/A time=00:00:18.12 bitrate=N/A    frame=  909 fps=4.2 q=24.8 size=N/A time=00:00:18.18 bitrate=N/A    frame=  911 fps=4.2 q=24.8 size=N/A time=00:00:18.22 bitrate=N/A    frame=  913 fps=4.2 q=24.8 size=N/A time=00:00:18.26 bitrate=N/A    frame=  916 fps=4.2 q=24.8 size=N/A time=00:00:18.32 bitrate=N/A    frame=  918 fps=4.2 q=24.8 size=N/A time=00:00:18.36 bitrate=N/A    frame=  920 fps=4.2 q=24.8 size=N/A time=00:00:18.40 bitrate=N/A    frame=  923 fps=4.2 q=24.8 size=N/A time=00:00:18.46 bitrate=N/A    frame=  926 fps=4.2 q=24.8 size=N/A time=00:00:18.52 bitrate=N/A    frame=  928 fps=4.2 q=24.8 size=N/A time=00:00:18.56 bitrate=N/A    frame=  930 fps=4.2 q=24.8 size=N/A time=00:00:18.60 bitrate=N/A    frame=  932 fps=4.2 q=24.8 size=N/A time=00:00:18.64 bitrate=N/A    frame=  934 fps=4.2 q=24.8 size=N/A time=00:00:18.68 bitrate=N/A    frame=  936 fps=4.2 q=24.8 size=N/A time=00:00:18.72 bitrate=N/A    frame=  939 fps=4.2 q=24.8 size=N/A time=00:00:18.78 bitrate=N/A    frame=  941 fps=4.2 q=24.8 size=N/A time=00:00:18.82 bitrate=N/A    frame=  943 fps=4.2 q=24.8 size=N/A time=00:00:18.86 bitrate=N/A    frame=  946 fps=4.2 q=24.8 size=N/A time=00:00:18.92 bitrate=N/A    frame=  948 fps=4.2 q=24.8 size=N/A time=00:00:18.96 bitrate=N/A    frame=  950 fps=4.2 q=24.8 size=N/A time=00:00:19.00 bitrate=N/A    frame=  952 fps=4.2 q=24.8 size=N/A time=00:00:19.04 bitrate=N/A    frame=  954 fps=4.2 q=24.8 size=N/A time=00:00:19.08 bitrate=N/A    frame=  956 fps=4.2 q=24.8 size=N/A time=00:00:19.12 bitrate=N/A    frame=  958 fps=4.2 q=24.8 size=N/A time=00:00:19.16 bitrate=N/A    frame=  960 fps=4.2 q=24.8 size=N/A time=00:00:19.20 bitrate=N/A    frame=  963 fps=4.2 q=24.8 size=N/A time=00:00:19.26 bitrate=N/A    frame=  966 fps=4.2 q=24.8 size=N/A time=00:00:19.32 bitrate=N/A    frame=  968 fps=4.2 q=24.8 size=N/A time=00:00:19.36 bitrate=N/A    frame=  971 fps=4.2 q=24.8 size=N/A time=00:00:19.42 bitrate=N/A    frame=  973 fps=4.2 q=24.8 size=N/A time=00:00:19.46 bitrate=N/A    frame=  976 fps=4.2 q=24.8 size=N/A time=00:00:19.52 bitrate=N/A    frame=  979 fps=4.2 q=24.8 size=N/A time=00:00:19.58 bitrate=N/A    frame=  982 fps=4.2 q=24.8 size=N/A time=00:00:19.64 bitrate=N/A    frame=  985 fps=4.2 q=24.8 size=N/A time=00:00:19.70 bitrate=N/A    frame=  988 fps=4.2 q=24.8 size=N/A time=00:00:19.76 bitrate=N/A    frame=  990 fps=4.2 q=24.8 size=N/A time=00:00:19.80 bitrate=N/A    frame=  992 fps=4.2 q=24.8 size=N/A time=00:00:19.84 bitrate=N/A    frame=  994 fps=4.2 q=24.8 size=N/A time=00:00:19.88 bitrate=N/A    frame=  997 fps=4.2 q=24.8 size=N/A time=00:00:19.94 bitrate=N/A    frame= 1000 fps=4.2 q=24.8 size=N/A time=00:00:20.00 bitrate=N/A    frame= 1003 fps=4.2 q=24.8 size=N/A time=00:00:20.06 bitrate=N/A    frame= 1005 fps=4.2 q=24.8 size=N/A time=00:00:20.10 bitrate=N/A    frame= 1007 fps=4.2 q=24.8 size=N/A time=00:00:20.14 bitrate=N/A    frame= 1009 fps=4.2 q=24.8 size=N/A time=00:00:20.18 bitrate=N/A    frame= 1012 fps=4.2 q=24.8 size=N/A time=00:00:20.24 bitrate=N/A    frame= 1014 fps=4.2 q=24.8 size=N/A time=00:00:20.28 bitrate=N/A    frame= 1016 fps=4.2 q=24.8 size=N/A time=00:00:20.32 bitrate=N/A    frame= 1018 fps=4.2 q=24.8 size=N/A time=00:00:20.36 bitrate=N/A    frame= 1020 fps=4.2 q=24.8 size=N/A time=00:00:20.40 bitrate=N/A    frame= 1022 fps=4.2 q=24.8 size=N/A time=00:00:20.44 bitrate=N/A    frame= 1024 fps=4.2 q=24.8 size=N/A time=00:00:20.48 bitrate=N/A    frame= 1027 fps=4.2 q=24.8 size=N/A time=00:00:20.54 bitrate=N/A    frame= 1029 fps=4.2 q=24.8 size=N/A time=00:00:20.58 bitrate=N/A    frame= 1032 fps=4.2 q=24.8 size=N/A time=00:00:20.64 bitrate=N/A    frame= 1034 fps=4.2 q=24.8 size=N/A time=00:00:20.68 bitrate=N/A    frame= 1036 fps=4.2 q=24.8 size=N/A time=00:00:20.72 bitrate=N/A    frame= 1038 fps=4.2 q=24.8 size=N/A time=00:00:20.76 bitrate=N/A    frame= 1040 fps=4.2 q=24.8 size=N/A time=00:00:20.80 bitrate=N/A    frame= 1042 fps=4.2 q=24.8 size=N/A time=00:00:20.84 bitrate=N/A    frame= 1044 fps=4.2 q=24.8 size=N/A time=00:00:20.88 bitrate=N/A    frame= 1046 fps=4.2 q=24.8 size=N/A time=00:00:20.92 bitrate=N/A    frame= 1048 fps=4.2 q=24.8 size=N/A time=00:00:20.96 bitrate=N/A    frame= 1050 fps=4.2 q=24.8 size=N/A time=00:00:21.00 bitrate=N/A    frame= 1052 fps=4.2 q=24.8 size=N/A time=00:00:21.04 bitrate=N/A    frame= 1054 fps=4.2 q=24.8 size=N/A time=00:00:21.08 bitrate=N/A    frame= 1057 fps=4.2 q=24.8 size=N/A time=00:00:21.14 bitrate=N/A    frame= 1059 fps=4.2 q=24.8 size=N/A time=00:00:21.18 bitrate=N/A    frame= 1062 fps=4.2 q=24.8 size=N/A time=00:00:21.24 bitrate=N/A    frame= 1065 fps=4.2 q=24.8 size=N/A time=00:00:21.30 bitrate=N/A    frame= 1068 fps=4.2 q=24.8 size=N/A time=00:00:21.36 bitrate=N/A    frame= 1071 fps=4.2 q=24.8 size=N/A time=00:00:21.42 bitrate=N/A    frame= 1074 fps=4.2 q=24.8 size=N/A time=00:00:21.48 bitrate=N/A    frame= 1076 fps=4.2 q=24.8 size=N/A time=00:00:21.52 bitrate=N/A    frame= 1078 fps=4.2 q=24.8 size=N/A time=00:00:21.56 bitrate=N/A    frame= 1080 fps=4.2 q=24.8 size=N/A time=00:00:21.60 bitrate=N/A    frame= 1083 fps=4.2 q=24.8 size=N/A time=00:00:21.66 bitrate=N/A    frame= 1085 fps=4.2 q=24.8 size=N/A time=00:00:21.70 bitrate=N/A    frame= 1087 fps=4.2 q=24.8 size=N/A time=00:00:21.74 bitrate=N/A    frame= 1089 fps=4.2 q=24.8 size=N/A time=00:00:21.78 bitrate=N/A    frame= 1093 fps=4.2 q=24.8 size=N/A time=00:00:21.86 bitrate=N/A    frame= 1095 fps=4.2 q=24.8 size=N/A time=00:00:21.90 bitrate=N/A    frame= 1098 fps=4.2 q=24.8 size=N/A time=00:00:21.96 bitrate=N/A    frame= 1100 fps=4.2 q=24.8 size=N/A time=00:00:22.00 bitrate=N/A    frame= 1102 fps=4.2 q=24.8 size=N/A time=00:00:22.04 bitrate=N/A    frame= 1104 fps=4.2 q=24.8 size=N/A time=00:00:22.08 bitrate=N/A    frame= 1106 fps=4.2 q=24.8 size=N/A time=00:00:22.12 bitrate=N/A    frame= 1108 fps=4.1 q=24.8 size=N/A time=00:00:22.16 bitrate=N/A    frame= 1110 fps=4.1 q=24.8 size=N/A time=00:00:22.20 bitrate=N/A    frame= 1113 fps=4.1 q=24.8 size=N/A time=00:00:22.26 bitrate=N/A    frame= 1115 fps=4.1 q=24.8 size=N/A time=00:00:22.30 bitrate=N/A    frame= 1117 fps=4.1 q=24.8 size=N/A time=00:00:22.34 bitrate=N/A    frame= 1120 fps=4.1 q=24.8 size=N/A time=00:00:22.40 bitrate=N/A    frame= 1123 fps=4.1 q=24.8 size=N/A time=00:00:22.46 bitrate=N/A    frame= 1125 fps=4.1 q=24.8 size=N/A time=00:00:22.50 bitrate=N/A    frame= 1127 fps=4.1 q=24.8 size=N/A time=00:00:22.54 bitrate=N/A    frame= 1129 fps=4.1 q=24.8 size=N/A time=00:00:22.58 bitrate=N/A    frame= 1132 fps=4.1 q=24.8 size=N/A time=00:00:22.64 bitrate=N/A    frame= 1136 fps=4.1 q=24.8 size=N/A time=00:00:22.72 bitrate=N/A    frame= 1138 fps=4.1 q=24.8 size=N/A time=00:00:22.76 bitrate=N/A    frame= 1140 fps=4.1 q=24.8 size=N/A time=00:00:22.80 bitrate=N/A    frame= 1143 fps=4.1 q=24.8 size=N/A time=00:00:22.86 bitrate=N/A    frame= 1145 fps=4.1 q=24.8 size=N/A time=00:00:22.90 bitrate=N/A    frame= 1147 fps=4.1 q=24.8 size=N/A time=00:00:22.94 bitrate=N/A    frame= 1149 fps=4.1 q=24.8 size=N/A time=00:00:22.98 bitrate=N/A    frame= 1151 fps=4.1 q=24.8 size=N/A time=00:00:23.02 bitrate=N/A    frame= 1154 fps=4.1 q=24.8 size=N/A time=00:00:23.08 bitrate=N/A    frame= 1157 fps=4.1 q=24.8 size=N/A time=00:00:23.14 bitrate=N/A    frame= 1159 fps=4.1 q=24.8 size=N/A time=00:00:23.18 bitrate=N/A    frame= 1161 fps=4.1 q=24.8 size=N/A time=00:00:23.22 bitrate=N/A    frame= 1164 fps=4.1 q=24.8 size=N/A time=00:00:23.28 bitrate=N/A    frame= 1166 fps=4.1 q=24.8 size=N/A time=00:00:23.32 bitrate=N/A    frame= 1168 fps=4.1 q=24.8 size=N/A time=00:00:23.36 bitrate=N/A    frame= 1170 fps=4.1 q=24.8 size=N/A time=00:00:23.40 bitrate=N/A    frame= 1172 fps=4.1 q=24.8 size=N/A time=00:00:23.44 bitrate=N/A    frame= 1174 fps=4.1 q=24.8 size=N/A time=00:00:23.48 bitrate=N/A    frame= 1176 fps=4.1 q=24.8 size=N/A time=00:00:23.52 bitrate=N/A    frame= 1179 fps=4.1 q=24.8 size=N/A time=00:00:23.58 bitrate=N/A    frame= 1181 fps=4.1 q=24.8 size=N/A time=00:00:23.62 bitrate=N/A    frame= 1183 fps=4.1 q=24.8 size=N/A time=00:00:23.66 bitrate=N/A    frame= 1186 fps=4.1 q=24.8 size=N/A time=00:00:23.72 bitrate=N/A    frame= 1189 fps=4.1 q=24.8 size=N/A time=00:00:23.78 bitrate=N/A    frame= 1191 fps=4.1 q=24.8 size=N/A time=00:00:23.82 bitrate=N/A    frame= 1194 fps=4.1 q=24.8 size=N/A time=00:00:23.88 bitrate=N/A    frame= 1196 fps=4.1 q=24.8 size=N/A time=00:00:23.92 bitrate=N/A    frame= 1198 fps=4.1 q=24.8 size=N/A time=00:00:23.96 bitrate=N/A    frame= 1200 fps=4.1 q=24.8 size=N/A time=00:00:24.00 bitrate=N/A    frame= 1203 fps=4.1 q=24.8 size=N/A time=00:00:24.06 bitrate=N/A    frame= 1206 fps=4.1 q=24.8 size=N/A time=00:00:24.12 bitrate=N/A    frame= 1209 fps=4.1 q=24.8 size=N/A time=00:00:24.18 bitrate=N/A    frame= 1212 fps=4.1 q=24.8 size=N/A time=00:00:24.24 bitrate=N/A    frame= 1214 fps=4.1 q=24.8 size=N/A time=00:00:24.28 bitrate=N/A    frame= 1216 fps=4.1 q=24.8 size=N/A time=00:00:24.32 bitrate=N/A    frame= 1218 fps=4.1 q=24.8 size=N/A time=00:00:24.36 bitrate=N/A    frame= 1220 fps=4.1 q=24.8 size=N/A time=00:00:24.40 bitrate=N/A    frame= 1222 fps=4.1 q=24.8 size=N/A time=00:00:24.44 bitrate=N/A    frame= 1224 fps=4.1 q=24.8 size=N/A time=00:00:24.48 bitrate=N/A    frame= 1226 fps=4.1 q=24.8 size=N/A time=00:00:24.52 bitrate=N/A    frame= 1228 fps=4.1 q=24.8 size=N/A time=00:00:24.56 bitrate=N/A    frame= 1230 fps=4.1 q=24.8 size=N/A time=00:00:24.60 bitrate=N/A    frame= 1233 fps=4.1 q=24.8 size=N/A time=00:00:24.66 bitrate=N/A    frame= 1236 fps=4.1 q=24.8 size=N/A time=00:00:24.72 bitrate=N/A    frame= 1239 fps=4.1 q=24.8 size=N/A time=00:00:24.78 bitrate=N/A    frame= 1242 fps=4.1 q=24.8 size=N/A time=00:00:24.84 bitrate=N/A    frame= 1245 fps=4.1 q=24.8 size=N/A time=00:00:24.90 bitrate=N/A    frame= 1248 fps=4.1 q=24.8 size=N/A time=00:00:24.96 bitrate=N/A    frame= 1251 fps=4.1 q=24.8 size=N/A time=00:00:25.02 bitrate=N/A    frame= 1253 fps=4.1 q=24.8 size=N/A time=00:00:25.06 bitrate=N/A    frame= 1256 fps=4.1 q=24.8 size=N/A time=00:00:25.12 bitrate=N/A    frame= 1258 fps=4.1 q=24.8 size=N/A time=00:00:25.16 bitrate=N/A    frame= 1260 fps=4.1 q=24.8 size=N/A time=00:00:25.20 bitrate=N/A    frame= 1262 fps=4.1 q=24.8 size=N/A time=00:00:25.24 bitrate=N/A    frame= 1264 fps=4.1 q=24.8 size=N/A time=00:00:25.28 bitrate=N/A    frame= 1267 fps=4.1 q=24.8 size=N/A time=00:00:25.34 bitrate=N/A    frame= 1269 fps=4.1 q=24.8 size=N/A time=00:00:25.38 bitrate=N/A    frame= 1271 fps=4.1 q=24.8 size=N/A time=00:00:25.42 bitrate=N/A    frame= 1274 fps=4.1 q=24.8 size=N/A time=00:00:25.48 bitrate=N/A    frame= 1275 fps=4.1 q=24.8 Lsize=N/A time=00:00:25.50 bitrate=N/A    
video:1191314kB audio:0kB subtitle:0kB other streams:0kB global headers:0kB muxing overhead: unknown
+ turkic load DJI_0065_5m_to_30m_regi_disznoturas_homokmegy_20180603_napos_kalaszos_T4 /home/horvathandras/vatic/vatic/videos/DJI_0065_5m_to_30m_regi_disznoturas_homokmegy_20180603_napos_kalaszos_T4 $'Pozit\303\255vROI' $'Negat\303\255vROI' $'T\303\272r\303\241s' '~Friss' '~1-2Hetes' '~Régebbi' '~Egyéb1' '~Egyéb2' '~Egyéb3' $'R\303\241g\303\241s' '~Friss' '~1-2Hetes' '~Régebbi' '~Egyéb1' '~Egyéb2' '~Egyéb3' $'T\303\266r\303\251s' '~Friss' '~1-2Hetes' '~Régebbi' '~Egyéb1' '~Egyéb2' '~Egyéb3' $'Tapos\303\241s' '~Friss' '~1-2Hetes' '~Régebbi' '~Egyéb1' '~Egyéb2' '~Egyéb3' $'Eg\303\251szs\303\251gesN\303\266v\303\251ny' $'Egy\303\251b1' $'Egy\303\251b2' $'Egy\303\251b3' $'Egy\303\251b4' $'Egy\303\251b5' Bizonytalan $'M\305\261vel\305\221\303\272t' $'Gktapos\303\241s' $'Vet\305\221hiba' $'Sz\303\251ld\303\266nt\303\251s' $'J\303\251gk\303\241r' $'Belv\303\255z' $'Asz\303\241ly' $'Er\303\263zi\303\263' $'Egyszik\305\261Gyom' $'K\303\251tszik\305\261Gyom' $'Egy\303\251bN\303\266vv\303\251delmiPR' --offline --title '$filenameNoDot Video' --length 1000 --description 'vatic annotation'
+ turkic publish --offline
+ mkdir /home/horvathandras/vatic/vatic/public/videothumbnails/DJI_0065_5m_to_30m_regi_disznoturas_homokmegy_20180603_napos_kalaszos_T4
+ cp /home/horvathandras/vatic/vatic/videos/DJI_0065_5m_to_30m_regi_disznoturas_homokmegy_20180603_napos_kalaszos_T4/0/0/31.jpg /home/horvathandras/vatic/vatic/public/videothumbnails/DJI_0065_5m_to_30m_regi_disznoturas_homokmegy_20180603_napos_kalaszos_T4/thumb.jpg
